# Blender v2.75 (sub 0) OBJ File: ''
# www.blender.org
mtllib biggestbombbag.mtl
o biggestbag_ring_geom-03CB1BF5
v 0.057000 0.147700 -0.040400
v 0.000000 0.147700 -0.057100
v 0.057000 0.232400 -0.040400
v 0.000000 0.232400 -0.057100
v -0.057000 0.147700 -0.040400
v -0.057000 0.232400 -0.040400
v -0.057000 0.147700 -0.040400
v -0.080600 0.147700 -0.000100
v -0.057000 0.232400 -0.040400
v -0.080600 0.232400 -0.000100
v -0.057000 0.147700 0.040200
v -0.057000 0.232400 0.040200
v -0.057000 0.147700 0.040200
v 0.000000 0.147700 0.056900
v -0.057000 0.232400 0.040200
v 0.000000 0.232400 0.056900
v 0.057000 0.232400 0.040200
v 0.057000 0.147700 0.040200
v 0.057000 0.147700 0.040200
v 0.080600 0.147700 -0.000100
v 0.057000 0.232400 0.040200
v 0.080600 0.232400 -0.000100
v 0.057000 0.147700 -0.040400
v 0.057000 0.232400 -0.040400
v 0.080600 0.232400 -0.000100
v 0.057000 0.232400 -0.040400
v 0.057000 0.232400 0.040200
v 0.000000 0.232400 -0.057100
v 0.000000 0.232400 0.056900
v -0.057000 0.232400 -0.040400
v -0.057000 0.232400 0.040200
v -0.080600 0.232400 -0.000100
vt 0.590000 0.020000
vt 0.590000 0.310000
vt 0.550000 0.500000
vt 0.550000 0.610000
vt 0.980000 0.020000
vt 0.980000 0.300000
vt 0.580000 0.020000
vt 0.580000 0.300000
vt 0.580000 0.610000
vt 0.980000 0.610000
vt 0.970000 0.420000
vn 0.281200 0.000000 -0.959700
vn -0.281200 0.000000 -0.959700
vn -0.862900 0.000000 -0.505300
vn -0.862900 -0.000000 0.505300
vn -0.281200 -0.000000 0.959700
vn 0.281200 -0.000000 0.959700
vn 0.862900 -0.000000 0.505300
vn 0.862900 0.000000 -0.505300
vn 0.000000 1.000000 -0.000000
usemtl material-00C99E5E
s off
f 1/1/1 2/2/1 3/1/1
f 2/2/1 4/2/1 3/1/1
f 2/2/2 5/1/2 4/2/2
f 5/1/2 6/1/2 4/2/2
f 7/3/3 8/4/3 9/3/3
f 8/4/3 10/4/3 9/3/3
f 8/4/4 11/3/4 10/4/4
f 11/3/4 12/3/4 10/4/4
f 13/5/5 14/6/5 15/7/5
f 14/6/5 16/8/5 15/7/5
f 16/8/6 14/6/6 17/9/6
f 14/6/6 18/10/6 17/9/6
f 19/3/7 20/4/7 21/3/7
f 20/4/7 22/4/7 21/3/7
f 20/4/8 23/3/8 22/4/8
f 23/3/8 24/3/8 22/4/8
f 25/11/9 26/11/9 27/11/9
f 26/11/9 28/11/9 27/11/9
f 27/11/9 28/11/9 29/11/9
f 28/11/9 30/11/9 29/11/9
f 29/11/9 30/11/9 31/11/9
f 30/11/9 32/11/9 31/11/9
o biggestbag_pouch_geom-03169154
v -0.080600 0.147700 -0.000100
v -0.057000 0.147700 -0.040400
v -0.057000 0.147700 0.040200
v 0.000000 0.147700 0.056900
v 0.000000 0.147700 -0.057100
v 0.057000 0.147700 0.040200
v 0.057000 0.147700 -0.040400
v 0.080600 0.147700 -0.000100
v -0.158700 0.043600 0.137600
v 0.000000 0.043600 0.200000
v -0.109600 0.096400 0.098900
v 0.000000 0.096400 0.143900
v -0.158700 0.043600 -0.137100
v -0.230800 0.043600 0.000200
v -0.109600 0.096400 -0.098900
v -0.159500 0.096400 0.000000
v 0.000000 0.355300 -0.131000
v 0.000000 0.214600 -0.038100
v -0.096800 0.323000 -0.084300
v -0.037100 0.214600 -0.026300
v -0.053900 0.214600 -0.000100
v -0.181600 0.304700 -0.000100
v 0.000000 0.096400 -0.143900
v 0.000000 0.043600 -0.199600
v 0.000000 0.152100 -0.045500
v -0.044200 0.152100 -0.031300
v -0.064300 0.152100 -0.000100
v -0.095800 0.313900 0.088500
v -0.037100 0.214600 0.026000
v 0.000000 0.214600 0.037900
v 0.000000 0.345500 0.149600
v -0.044200 0.152100 0.031100
v 0.000000 0.152100 0.045300
v 0.000000 -0.289600 -0.000000
v 0.000000 -0.266100 0.139800
v -0.106500 -0.266100 0.096100
v -0.162300 -0.218200 0.144100
v 0.000000 -0.218200 0.209500
v -0.188300 -0.125000 0.163000
v 0.000000 -0.125000 0.237000
v -0.162300 -0.218200 -0.144100
v -0.236100 -0.218200 -0.000000
v -0.188300 -0.125000 -0.163000
v -0.273900 -0.125000 -0.000000
v 0.000000 -0.125000 -0.237000
v 0.000000 -0.218200 -0.209500
v 0.000000 -0.041300 -0.232600
v -0.183000 -0.041300 -0.158300
v -0.266100 -0.041300 -0.000000
v -0.183000 -0.041300 0.158300
v 0.000000 -0.041300 0.230300
v -0.154900 -0.266100 -0.000000
v -0.106500 -0.266100 -0.096100
v 0.000000 -0.266100 -0.139800
v 0.158700 0.043600 0.137600
v 0.109600 0.096400 0.098900
v 0.158700 0.043600 -0.137100
v 0.109600 0.096400 -0.098900
v 0.230800 0.043600 0.000200
v 0.159500 0.096400 0.000000
v 0.096800 0.309100 -0.084300
v 0.037100 0.214600 -0.026300
v 0.053900 0.214600 -0.000100
v 0.172000 0.328800 -0.000100
v 0.044200 0.152100 -0.031300
v 0.064300 0.152100 -0.000100
v 0.096800 0.304700 0.078800
v 0.037100 0.214600 0.026000
v 0.044200 0.152100 0.031100
v 0.106500 -0.266100 0.096100
v 0.162300 -0.218200 0.144100
v 0.188300 -0.125000 0.163000
v 0.162300 -0.218200 -0.144100
v 0.188300 -0.125000 -0.163000
v 0.236100 -0.218200 -0.000000
v 0.273900 -0.125000 -0.000000
v 0.183000 -0.041300 -0.158300
v 0.266100 -0.041300 -0.000000
v 0.183000 -0.041300 0.158300
v 0.106500 -0.266100 -0.096100
v 0.154900 -0.266100 -0.000000
v 0.000000 0.355300 -0.131000
v -0.096800 0.323000 -0.084300
v 0.000000 0.256600 -0.000100
v -0.181600 0.304700 -0.000100
v -0.095800 0.313900 0.088500
v 0.000000 0.345500 0.149600
v 0.096800 0.309100 -0.084300
v 0.172000 0.328800 -0.000100
v 0.096800 0.304700 0.078800
v 0.057000 0.147700 -0.040400
v 0.000000 0.147700 -0.057100
v 0.057000 0.232400 -0.040400
v 0.000000 0.232400 -0.057100
v -0.057000 0.147700 -0.040400
v -0.057000 0.232400 -0.040400
v -0.057000 0.147700 -0.040400
v -0.080600 0.147700 -0.000100
v -0.057000 0.232400 -0.040400
v -0.080600 0.232400 -0.000100
v -0.057000 0.147700 0.040200
v -0.057000 0.232400 0.040200
v -0.057000 0.147700 0.040200
v 0.000000 0.147700 0.056900
v -0.057000 0.232400 0.040200
v 0.000000 0.232400 0.056900
v 0.057000 0.232400 0.040200
v 0.057000 0.147700 0.040200
v 0.057000 0.147700 0.040200
v 0.080600 0.147700 -0.000100
v 0.057000 0.232400 0.040200
v 0.080600 0.232400 -0.000100
v 0.057000 0.147700 -0.040400
v 0.057000 0.232400 -0.040400
v 0.080600 0.232400 -0.000100
v 0.057000 0.232400 -0.040400
v 0.057000 0.232400 0.040200
v 0.000000 0.232400 -0.057100
v 0.000000 0.232400 0.056900
v -0.057000 0.232400 -0.040400
v -0.057000 0.232400 0.040200
v -0.080600 0.232400 -0.000100
vt 0.980000 0.730000
vt 0.480000 0.590000
vt 0.020000 0.590000
vt 0.390000 0.750000
vt 0.020000 0.750000
vt 0.240000 0.980000
vt 0.020000 0.980000
vt 0.020000 0.410000
vt 0.550000 0.410000
vt 0.020000 0.270000
vt 0.550000 0.270000
vt 0.020000 0.140000
vt 0.550000 0.140000
vt 0.890000 0.980000
vt 0.890000 0.640000
vt 0.280000 0.980000
vt 0.520000 0.640000
vt 0.120000 0.080000
vt 0.020000 0.020000
vt 0.500000 0.020000
vt 0.440000 0.980000
vt 0.550000 0.660000
vn -0.000000 -1.000000 -0.000000
vn -0.255900 0.714900 0.650700
vn -0.582800 0.757500 0.294100
vn -0.567600 0.767600 0.297800
vn -0.570500 0.769200 -0.287800
vn -0.578200 0.757300 -0.303600
vn -0.257300 0.712000 -0.653400
vn -0.271800 0.698400 -0.662100
vn -0.204200 0.843200 -0.497300
vn -0.156300 0.859600 -0.486600
vn 0.156300 0.859600 -0.486600
vn 0.204200 0.843200 -0.497300
vn 0.436800 0.854400 -0.281400
vn 0.489500 0.836300 -0.247000
vn 0.570500 0.769200 -0.287800
vn 0.578200 0.757300 -0.303600
vn 0.257300 0.712000 -0.653400
vn 0.271800 0.698400 -0.662100
vn -0.344600 0.340100 -0.875000
vn 0.344600 0.340100 -0.875000
vn 0.356300 0.321100 -0.877500
vn 0.830500 0.346600 -0.436100
vn 0.830600 0.346400 -0.436000
vn 0.831300 0.344600 0.436200
vn 0.831300 0.344300 0.436400
vn 0.347300 0.314800 0.883300
vn 0.347500 0.315200 0.883100
vn -0.347500 0.315200 0.883100
vn -0.365100 0.074300 0.928000
vn -0.364700 0.075200 0.928100
vn -0.352700 -0.264800 0.897500
vn -0.358700 -0.280600 0.890300
vn -0.837900 -0.323000 0.440000
vn -0.837200 -0.339500 0.428800
vn -0.833300 -0.338000 -0.437600
vn -0.842500 -0.322500 -0.431500
vn -0.358700 -0.280600 -0.890300
vn -0.352700 -0.264800 -0.897500
vn 0.352700 -0.264800 -0.897500
vn 0.364700 0.075200 -0.928100
vn 0.375700 0.048600 -0.925400
vn -0.375700 0.048600 -0.925400
vn -0.356300 0.321100 -0.877500
vn -0.830500 0.346600 -0.436100
vn -0.830600 0.346400 -0.436000
vn -0.831300 0.344600 0.436200
vn -0.831300 0.344300 0.436400
vn -0.347300 0.314800 0.883300
vn -0.270900 0.701000 0.659700
vn 0.270900 0.701000 0.659700
vn 0.255900 0.714900 0.650700
vn 0.582800 0.757500 0.294100
vn 0.567600 0.767600 0.297800
vn 0.473900 0.847500 0.239100
vn 0.168300 0.835100 0.523700
vn 0.198000 0.853400 0.482100
vn -0.198000 0.853400 0.482100
vn -0.168300 0.835100 0.523700
vn -0.473900 0.847500 0.239100
vn -0.480000 0.821000 0.309200
vn -0.489500 0.836300 -0.247000
vn -0.436800 0.854400 -0.281400
vn -0.213700 -0.538300 -0.815200
vn 0.138300 -0.545700 -0.826500
vn 0.239400 -0.613200 -0.752700
vn 0.633800 -0.653900 -0.413100
vn 0.634900 -0.656600 -0.407100
vn 0.634500 -0.656200 0.408400
vn 0.635200 -0.657900 0.404500
vn 0.278900 -0.616300 0.736400
vn 0.237000 -0.630600 0.739000
vn -0.237000 -0.630600 0.739000
vn -0.265500 -0.621100 0.737400
vn -0.508700 -0.653500 0.560500
vn -0.540500 -0.766000 0.347900
vn -0.540700 -0.766400 -0.346700
vn -0.491100 -0.605500 -0.626200
vn -0.251000 -0.560500 -0.789200
vn -0.067900 -0.983900 0.165400
vn -0.149600 -0.985900 0.075300
vn -0.149600 -0.985900 -0.075300
vn -0.067900 -0.983900 -0.165400
vn 0.067900 -0.983900 -0.165400
vn 0.149600 -0.985900 -0.075300
vn 0.149600 -0.985900 0.075300
vn 0.492200 -0.834400 0.247900
vn 0.495200 -0.831000 0.253600
vn 0.837200 -0.339500 0.428800
vn 0.833300 -0.338000 -0.437600
vn 0.842500 -0.322500 -0.431500
vn 0.358700 -0.280600 -0.890300
vn 0.222500 -0.803500 -0.552200
vn -0.222500 -0.803500 -0.552200
vn -0.223900 -0.807600 -0.545600
vn -0.497400 -0.830500 -0.250500
vn -0.491700 -0.833500 -0.251800
vn -0.492200 -0.834400 0.247900
vn -0.495200 -0.831000 0.253600
vn -0.220900 -0.806700 0.548200
vn -0.226400 -0.802800 0.551700
vn 0.226400 -0.802800 0.551700
vn 0.067900 -0.983900 0.165400
vn 0.220900 -0.806700 0.548200
vn 0.358700 -0.280600 0.890300
vn 0.837900 -0.323000 0.440000
vn 0.882400 0.081900 0.463400
vn 0.365100 0.075200 0.927900
vn 0.364700 0.074300 0.928100
vn 0.352700 -0.264800 0.897500
vn 0.480000 0.821000 0.309200
vn 0.497400 -0.830500 -0.250500
vn 0.223900 -0.807600 -0.545600
vn 0.491700 -0.833500 -0.251800
vn -0.882300 0.082200 0.463400
vn -0.882400 0.082200 -0.463200
vn -0.882400 0.081900 -0.463400
vn -0.364700 0.075200 -0.928100
vn -0.882400 0.081900 0.463200
vn 0.882300 0.082200 -0.463400
vn 0.882400 0.082200 0.463200
vn 0.882400 0.081900 -0.463200
vn 0.024000 0.798200 0.601900
vn 0.090300 0.795200 0.599600
vn -0.383800 0.914400 0.128900
vn -0.385600 0.918600 -0.086900
vn -0.011100 0.859800 -0.510600
vn 0.042000 0.859100 -0.510200
vn 0.241800 0.912900 -0.328900
vn 0.231900 0.875500 0.423800
usemtl material-024F4A7C
s off
f 33/12/10 34/12/10 35/12/10
f 35/12/10 34/12/10 36/12/10
f 34/12/10 37/12/10 36/12/10
f 36/12/10 37/12/10 38/12/10
f 37/12/10 39/12/10 38/12/10
f 38/12/10 39/12/10 40/12/10
f 41/13/11 42/14/11 43/15/11
f 41/13/12 43/15/12 48/16/12
f 46/14/13 41/13/13 48/16/13
f 46/14/14 48/16/14 47/15/14
f 45/13/15 46/14/15 47/15/15
f 56/14/16 45/13/16 47/15/16
f 55/16/17 56/14/17 47/15/17
f 55/16/18 47/15/18 58/17/18
f 57/18/19 55/16/19 58/17/19
f 57/18/20 97/17/20 55/16/20
f 97/17/21 90/15/21 55/16/21
f 90/15/22 97/17/22 98/18/22
f 92/16/23 90/15/23 98/18/23
f 90/15/24 92/16/24 91/14/24
f 89/13/25 90/15/25 91/14/25
f 90/15/26 89/13/26 56/14/26
f 55/16/27 90/15/27 56/14/27
f 56/14/28 79/19/28 45/13/28
f 56/14/29 89/13/29 79/19/29
f 89/13/30 109/20/30 79/19/30
f 109/20/31 89/13/31 91/14/31
f 110/19/32 109/20/32 91/14/32
f 110/19/33 91/14/33 87/13/33
f 111/20/34 110/19/34 87/13/34
f 111/20/35 87/13/35 42/14/35
f 83/19/36 111/20/36 42/14/36
f 83/19/37 42/14/37 82/20/37
f 72/21/38 83/19/38 82/20/38
f 71/22/39 72/21/39 82/20/39
f 70/23/40 72/21/40 71/22/40
f 69/24/41 70/23/41 71/22/41
f 69/24/42 71/22/42 76/21/42
f 74/23/43 69/24/43 76/21/43
f 74/23/44 76/21/44 75/22/44
f 73/24/45 74/23/45 75/22/45
f 78/23/46 73/24/46 75/22/46
f 77/21/47 78/23/47 75/22/47
f 77/21/48 106/22/48 78/23/48
f 109/20/49 106/22/49 77/21/49
f 79/19/50 109/20/50 77/21/50
f 79/19/51 77/21/51 80/20/51
f 79/19/52 80/20/52 45/13/52
f 46/14/53 45/13/53 80/20/53
f 81/19/54 46/14/54 80/20/54
f 41/13/55 46/14/55 81/19/55
f 82/20/56 41/13/56 81/19/56
f 42/14/57 41/13/57 82/20/57
f 42/14/58 44/16/58 43/15/58
f 88/15/59 44/16/59 42/14/59
f 87/13/60 88/15/60 42/14/60
f 92/16/61 88/15/61 87/13/61
f 91/14/62 92/16/62 87/13/62
f 88/15/63 92/16/63 101/17/63
f 88/15/64 101/17/64 65/18/64
f 44/16/65 88/15/65 65/18/65
f 44/16/66 65/18/66 43/15/66
f 65/18/67 64/17/67 43/15/67
f 43/15/68 64/17/68 48/16/68
f 64/17/69 59/18/69 48/16/69
f 48/16/70 59/18/70 47/15/70
f 59/18/71 58/17/71 47/15/71
f 49/25/72 50/26/72 51/27/72
f 49/25/73 93/27/73 50/26/73
f 93/27/74 94/28/74 50/26/74
f 94/28/75 93/27/75 96/25/75
f 95/26/76 94/28/76 96/25/76
f 100/28/77 95/26/77 96/25/77
f 99/27/78 100/28/78 96/25/78
f 100/28/79 99/27/79 63/25/79
f 62/26/80 100/28/80 63/25/80
f 62/26/81 63/25/81 61/28/81
f 63/25/82 60/27/82 61/28/82
f 60/27/83 54/25/83 61/28/83
f 54/25/84 53/26/84 61/28/84
f 53/26/85 54/25/85 52/28/85
f 54/25/86 51/27/86 52/28/86
f 50/26/87 52/28/87 51/27/87
f 66/29/88 67/30/88 68/31/88
f 84/30/89 66/29/89 68/31/89
f 66/29/90 84/30/90 85/31/90
f 66/29/91 85/31/91 86/30/91
f 66/29/92 86/30/92 112/31/92
f 66/29/93 112/31/93 113/30/93
f 113/30/94 102/31/94 66/29/94
f 102/31/95 113/30/95 107/23/95
f 103/24/96 102/31/96 107/23/96
f 107/23/97 108/21/97 103/24/97
f 106/22/98 108/21/98 107/23/98
f 105/24/99 106/22/99 107/23/99
f 106/22/100 105/24/100 78/23/100
f 78/23/101 105/24/101 86/30/101
f 78/23/102 86/30/102 73/24/102
f 86/30/103 85/31/103 73/24/103
f 85/31/104 84/30/104 73/24/104
f 84/30/105 74/23/105 73/24/105
f 74/23/106 84/30/106 68/31/106
f 69/24/107 74/23/107 68/31/107
f 70/23/108 69/24/108 68/31/108
f 67/30/109 70/23/109 68/31/109
f 67/30/110 102/31/110 70/23/110
f 66/29/111 102/31/111 67/30/111
f 102/31/112 103/24/112 70/23/112
f 103/24/113 104/22/113 70/23/113
f 108/21/114 104/22/114 103/24/114
f 104/22/115 108/21/115 111/20/115
f 104/22/116 111/20/116 83/19/116
f 72/21/117 104/22/117 83/19/117
f 104/22/118 72/21/118 70/23/118
f 92/16/119 98/18/119 101/17/119
f 112/31/120 105/24/120 113/30/120
f 105/24/121 112/31/121 86/30/121
f 105/24/122 107/23/122 113/30/122
f 76/21/123 71/22/123 81/19/123
f 76/21/124 81/19/124 80/20/124
f 75/22/125 76/21/125 80/20/125
f 77/21/126 75/22/126 80/20/126
f 71/22/127 82/20/127 81/19/127
f 108/21/128 106/22/128 110/19/128
f 108/21/129 110/19/129 111/20/129
f 106/22/130 109/20/130 110/19/130
f 114/25/131 115/32/131 116/33/131
f 114/25/132 116/33/132 120/32/132
f 116/33/133 121/25/133 120/32/133
f 122/32/134 121/25/134 116/33/134
f 116/33/135 119/25/135 122/32/135
f 116/33/136 118/32/136 119/25/136
f 118/32/137 116/33/137 117/25/137
f 116/33/138 115/32/138 117/25/138
