# 3ds Max Wavefront OBJ Exporter v0.97b - (c)2007 guruware
# File Created: 28.10.2015 14:14:23

mtllib maskofscents.mtl

#
# object node_00B71FD5
#

v  0.0000 1.8189 5.8661
v  3.1260 0.5591 4.5945
v  2.8937 1.5354 0.8740
v  2.0984 1.1220 9.2598
v  0.0000 2.9488 1.8465
v  0.0000 1.6496 9.9213
v  -2.8937 1.5354 0.8740
v  -2.0984 1.1220 9.2598
v  -3.1260 0.5591 4.5945
v  5.1378 -0.9016 1.5551
v  4.2165 -1.2283 8.0315
v  -4.5630 3.6260 0.2953
v  4.5630 3.6260 0.2953
v  0.0000 3.4606 4.3346
v  -4.2165 -1.2283 8.0315
v  -5.1378 -0.9016 1.5551
v  5.7008 -4.2402 2.2126
v  4.7835 -4.7402 6.9961
v  7.5315 1.8425 -0.5433
v  -4.4094 4.3307 4.2992
v  -7.5315 1.8425 -0.5433
v  -7.5787 4.6378 1.1024
v  -5.7008 -4.2402 2.2126
v  -4.7835 -4.7402 6.9961
v  4.5591 -6.5000 1.8740
v  2.4803 -5.2598 7.0906
v  7.5787 4.6378 1.1024
v  4.4094 4.3307 4.2992
v  10.2008 -1.5315 -0.0945
v  -5.1614 7.8228 1.6890
v  0.0000 4.8622 5.2008
v  0.0000 7.3937 4.1063
v  -10.2008 -1.5315 -0.0945
v  -9.7283 2.4173 -2.8976
v  -4.5591 -6.5000 1.8740
v  -2.4803 -5.2598 7.0906
v  0.0000 -6.0197 0.7283
v  0.0000 -4.6417 7.0906
v  9.7283 2.4173 -2.8976
v  5.1614 7.8228 1.6890
v  9.2126 6.0118 -2.9370
v  8.9528 -5.1220 -0.7008
v  -9.2126 6.0118 -2.9370
v  0.0000 9.9724 0.8740
v  -5.9488 9.4921 -2.5315
v  -8.9528 -5.1220 -0.7008
v  -12.3228 -0.7520 -4.5709
v  -12.5945 -3.1142 -4.0197
v  11.0354 2.2244 -6.6339
v  5.9488 9.4921 -2.5315
v  9.7835 5.5748 -8.5276
v  7.0118 -7.1024 -1.8425
v  12.3228 -0.7520 -4.5709
v  12.5945 -3.1142 -4.0197
v  -9.7835 5.5748 -8.5276
v  -4.0236 11.3346 -5.5354
v  -11.0354 2.2244 -6.6339
v  -9.6457 -7.7008 -5.6220
v  -11.6693 -3.0906 -8.4764
v  -7.0118 -7.1024 -1.8425
v  4.0236 11.3346 -5.5354
v  9.9764 1.3898 -9.6496
v  9.6457 -7.7008 -5.6220
v  11.6693 -3.0906 -8.4764
v  0.0000 10.8504 -4.0118
v  -9.9764 1.3898 -9.6496
v  -7.1220 -7.0591 -9.6181
v  7.1220 -7.0591 -9.6181
v  8.8504 -3.0000 -10.6063
v  -8.8504 -3.0000 -10.6063
v  0.0000 -5.8858 6.0354
v  4.5039 -6.2087 5.1063
v  -4.5039 -6.2087 5.1063
v  8.3189 -6.5276 2.7559
v  -8.3189 -6.5276 2.7559
v  9.9213 -7.1142 -1.4016
v  -9.9213 -7.1142 -1.4016
v  6.6496 -10.1575 -1.1693
v  0.0000 -11.3346 -3.3346
v  5.6457 -9.7165 -6.6378
v  0.0000 -11.2480 1.0472
v  4.5512 -9.3425 2.8701
v  0.0000 -10.0669 -8.4449
v  -6.6496 -10.1575 -1.1693
v  -5.6457 -9.7165 -6.6378
v  0.0000 -8.2520 5.5748
v  -4.5512 -9.3425 2.8701
v  8.9094 -4.0079 2.5669
v  8.1260 -6.9173 1.8661
v  8.0787 -7.4646 -1.7323
v  5.0394 -6.8386 2.2480
v  9.1496 -2.8622 0.8110
v  7.3150 -2.7008 2.9252
v  8.9055 1.3898 2.8819
v  -8.9094 -4.0079 2.5669
v  -8.0787 -7.4646 -1.7323
v  -8.1260 -6.9173 1.8661
v  -9.1496 -2.8622 0.8110
v  -5.0394 -6.8386 2.2480
v  -8.9055 1.3898 2.8819
v  -7.3150 -2.7008 2.9252
v  6.1575 4.0827 0.4370
v  3.1181 0.9094 0.9173
v  6.2638 1.0984 0.4094
v  3.0118 3.8976 0.9173
v  -6.1575 4.0827 0.4370
v  -6.2638 1.0984 0.4094
v  -3.1181 0.9094 0.9173
v  -3.0118 3.8976 0.9173
# 109 vertices

vn 0.4359 0.8768 0.2029
vn 0.3622 0.9315 -0.0326
vn 0.4894 0.8395 0.2360
vn 0.2556 0.9660 0.0403
vn -0.4894 0.8395 0.2360
vn -0.2556 0.9660 0.0403
vn -0.4359 0.8768 0.2029
vn -0.3622 0.9315 -0.0326
vn 0.7093 0.6915 0.1372
vn 0.7629 0.6401 0.0908
vn 0.7081 0.6930 0.1357
vn -0.3211 0.0058 0.9470
vn 0.3211 0.0058 0.9470
vn -0.2091 -0.9578 0.1970
vn 0.2091 -0.9578 0.1970
vn -0.7629 0.6401 0.0908
vn -0.7093 0.6915 0.1372
vn -0.7081 0.6930 0.1357
vn 0.9701 0.1927 0.1477
vn 0.9753 0.0992 0.1974
vn 0.2901 0.0331 0.9564
vn 0.2327 0.4545 0.8598
vn -0.1919 -0.9653 0.1773
vn -0.2901 0.0331 0.9564
vn -0.2702 -0.9464 0.1769
vn 0.0607 -0.5056 0.8606
vn -0.2327 0.4545 0.8598
vn -0.9701 0.1927 0.1477
vn -0.9753 0.0992 0.1974
vn 0.8787 -0.4620 0.1202
vn 0.2214 -0.9252 0.3082
vn -0.0607 -0.5056 0.8606
vn 0.1919 -0.9653 0.1773
vn 0.2702 -0.9464 0.1769
vn 0.3274 0.2354 0.9151
vn 0.3290 0.3756 0.8664
vn -0.6436 0.3645 0.6730
vn -0.1099 -0.5225 0.8455
vn -0.3265 0.5198 0.7894
vn -0.2292 0.3863 0.8934
vn 0.1099 -0.5225 0.8455
vn 0.2292 0.3863 0.8934
vn -0.3290 0.3756 0.8664
vn -0.7246 -0.3587 0.5885
vn -0.5547 0.5247 0.6457
vn -0.3274 0.2354 0.9151
vn -0.8787 -0.4620 0.1202
vn -0.2214 -0.9252 0.3082
vn -0.1462 -0.9740 0.1733
vn -0.2366 -0.9496 0.2057
vn 0.1462 -0.9740 0.1733
vn 0.2366 -0.9496 0.2057
vn 0.7246 -0.3587 0.5885
vn 0.6436 0.3645 0.6730
vn 0.9020 0.1339 0.4104
vn 0.7446 0.4796 0.4643
vn 0.3265 0.5198 0.7894
vn 0.5547 0.5247 0.6457
vn 0.5535 -0.3899 0.7359
vn 0.5797 -0.3275 0.7462
vn -0.7446 0.4796 0.4643
vn -0.2215 0.7623 0.6082
vn -0.6983 0.6115 0.3721
vn -0.2982 0.8672 0.3987
vn 0.2215 0.7623 0.6082
vn -0.9020 0.1339 0.4104
vn -0.5797 -0.3275 0.7462
vn -0.7931 0.4128 0.4479
vn -0.7291 -0.3525 0.5867
vn -0.8702 0.2046 0.4482
vn -0.5535 -0.3899 0.7359
vn 0.9371 0.1380 0.3207
vn 0.6983 0.6115 0.3721
vn 0.9223 0.3810 0.0644
vn 0.7305 0.6826 0.0212
vn 0.2982 0.8672 0.3987
vn 0.4958 -0.7441 0.4478
vn 0.7931 0.4128 0.4479
vn 0.7291 -0.3525 0.5867
vn 0.8702 0.2046 0.4482
vn 0.8099 0.5278 0.2561
vn -0.7305 0.6826 0.0212
vn -0.2805 0.8878 0.3648
vn -0.7032 0.7108 -0.0147
vn -0.8099 0.5278 0.2561
vn -0.9371 0.1380 0.3207
vn -0.9223 0.3810 0.0644
vn -0.6968 -0.5903 0.4074
vn -0.9771 0.0651 -0.2025
vn -0.8548 -0.4867 -0.1800
vn -0.9362 0.2094 -0.2821
vn -0.4958 -0.7441 0.4478
vn -0.4884 -0.7428 0.4580
vn 0.7032 0.7108 -0.0147
vn 0.9216 0.1396 -0.3623
vn 0.2805 0.8878 0.3648
vn 0.4884 -0.7428 0.4580
vn 0.6968 -0.5903 0.4074
vn 0.9362 0.2094 -0.2821
vn 0.9771 0.0651 -0.2025
vn 0.8548 -0.4867 -0.1800
vn 0.8938 0.2383 -0.3798
vn 0.0514 0.9829 0.1766
vn -0.0514 0.9829 0.1766
vn -0.9216 0.1396 -0.3623
vn -0.8938 0.2383 -0.3798
vn -0.6380 -0.5879 -0.4973
vn 0.6380 -0.5879 -0.4973
vn 0.6031 0.0191 -0.7974
vn 0.5416 -0.4094 -0.7342
vn -0.6031 0.0191 -0.7974
vn -0.5416 -0.4094 -0.7342
vn 0.0663 0.9975 -0.0252
vn -0.0663 0.9975 -0.0252
vn 0.0673 0.9974 -0.0261
vn -0.0673 0.9974 -0.0261
vn 0.0864 0.9906 -0.1065
vn -0.0864 0.9906 -0.1065
vn 0.0783 0.9867 -0.1423
vn -0.0783 0.9867 -0.1423
vn 0.2099 -0.9707 -0.1168
vn 0.1681 -0.9856 0.0195
vn 0.4760 -0.8653 -0.1572
vn 0.2555 -0.9134 0.3170
vn 0.6822 -0.7290 0.0568
vn 0.5488 -0.7171 0.4297
vn 0.6520 -0.6745 0.3464
vn 0.1360 -0.9616 -0.2385
vn -0.1681 -0.9856 0.0195
vn -0.1360 -0.9616 -0.2385
vn -0.2099 -0.9707 -0.1168
vn 0.4910 -0.7568 -0.4316
vn 0.2340 -0.7804 -0.5799
vn 0.4144 -0.5245 0.7438
vn 0.1271 -0.8272 0.5474
vn 0.3277 -0.5455 0.7714
vn -0.4760 -0.8653 -0.1572
vn -0.2555 -0.9134 0.3170
vn -0.6822 -0.7290 0.0568
vn -0.5488 -0.7171 0.4297
vn -0.6520 -0.6745 0.3464
vn -0.1271 -0.8272 0.5474
vn -0.2340 -0.7804 -0.5799
vn -0.4910 -0.7568 -0.4316
vn 0.1855 -0.1878 0.9645
vn -0.4144 -0.5245 0.7438
vn -0.1855 -0.1878 0.9645
vn -0.3277 -0.5455 0.7714
vn 0.9635 -0.2662 0.0278
vn 0.1120 -0.2611 0.9588
vn 0.9752 -0.2210 -0.0108
vn 0.0611 -0.1938 0.9791
vn 0.9913 -0.0069 0.1311
vn 0.1740 -0.0572 0.9831
vn -0.9635 -0.2662 0.0278
vn -0.9752 -0.2210 -0.0108
vn -0.1120 -0.2611 0.9588
vn -0.9913 -0.0069 0.1311
vn -0.0611 -0.1938 0.9791
vn -0.1740 -0.0572 0.9831
vn -0.0810 -0.3251 0.9422
vn 0.1812 -0.4035 0.8968
vn -0.1812 -0.4035 0.8968
vn 0.0810 -0.3251 0.9422
vn 0.2021 -0.3043 0.9309
vn 0.0995 -0.2666 0.9587
vn -0.2021 -0.3043 0.9309
vn -0.0995 -0.2666 0.9587
vn -0.7165 0.2718 -0.6425
vn -0.6445 0.4792 -0.5958
vn -0.6680 0.4627 -0.5828
vn 0.7165 0.2718 -0.6425
vn 0.6445 0.4792 -0.5958
vn 0.6680 0.4627 -0.5828
vn 0.1596 -0.0034 0.9872
vn 0.1506 0.0054 0.9886
vn -0.1596 -0.0034 0.9872
vn -0.1506 0.0054 0.9886
# 178 vertex normals

vt 0.3000 0.4100 0.0000
vt 0.3800 0.3000 0.0000
vt 0.4800 0.3600 0.0000
vt 0.2300 0.3000 0.0000
vt 0.4400 0.4200 0.0000
vt 0.2000 0.4100 0.0000
vt 0.5200 0.2500 0.0000
vt 0.2800 0.2200 0.0000
vt 0.5600 0.4200 0.0000
vt 0.3600 0.4500 0.0000
vt 0.5200 0.1300 0.0000
vt 0.3000 0.1300 0.0000
vt 0.6700 0.3600 0.0000
vt 0.5200 0.5000 0.0000
vt 0.6600 0.4800 0.0000
vt 0.5000 0.0500 0.0000
vt 0.3000 0.0500 0.0000
vt 0.7000 0.2300 0.0000
vt 0.5800 0.6100 0.0000
vt 0.3600 0.5200 0.0000
vt 0.3600 0.6100 0.0000
vt 0.7800 0.3800 0.0000
vt 0.4800 0.0200 0.0000
vt 0.3000 0.0200 0.0000
vt 0.8000 0.5200 0.0000
vt 0.7200 0.1300 0.0000
vt 0.4100 0.7000 0.0000
vt 0.7000 0.6900 0.0000
vt 0.8400 0.2700 0.0000
vt 0.8300 0.1900 0.0000
vt 0.9100 0.3800 0.0000
vt 0.9700 0.5200 0.0000
vt 0.7300 0.0500 0.0000
vt 0.7700 0.8000 0.0000
vt 0.8600 0.0500 0.0000
vt 0.9400 0.1900 0.0000
vt 0.9800 0.3400 0.0000
vt 0.5000 0.8000 0.0000
vt 0.9800 0.0500 0.0000
vt 0.9800 0.1900 0.0000
vt 0.4500 0.9800 0.0000
vt 0.4500 0.8300 0.0000
vt 0.5800 0.8300 0.0000
vt 0.7200 0.8300 0.0000
vt 0.8000 0.9200 0.0000
vt 0.8000 0.9800 0.0000
vt 0.2200 0.8300 0.0000
vt 0.1400 0.9800 0.0000
vt 0.0900 0.8700 0.0000
vt 0.2500 0.9800 0.0000
vt 0.1100 0.7700 0.0000
vt 0.3100 0.8700 0.0000
vt 0.2200 0.7700 0.0000
vt 0.3300 0.8000 0.0000
vt 0.0200 0.9800 0.0000
vt 0.0200 0.8400 0.0000
vt 0.4100 0.8700 0.0000
vt 0.3600 0.9800 0.0000
vt 0.4200 0.9800 0.0000
vt 0.9100 0.8900 0.0000
vt 0.9100 0.9800 0.0000
vt 0.9800 0.9800 0.0000
vt 0.8300 0.9800 0.0000
vt 0.9500 0.8300 0.0000
vt 0.8600 0.8300 0.0000
vt 0.9100 0.7000 0.0000
vt 0.0200 0.0500 0.0000
vt 0.1400 0.0200 0.0000
vt 0.1300 0.3900 0.0000
vt 0.0200 0.4200 0.0000
vt 0.2300 0.2500 0.0000
vt 0.2700 0.0500 0.0000
vt 0.9200 0.8300 0.0000
vt 0.9200 0.7700 0.0000
vt 0.9200 0.9800 0.0000
vt 0.3000 0.7300 0.0000
vt 0.0200 0.4500 0.0000
vt 0.3000 0.4500 0.0000
vt 0.0200 0.7300 0.0000
# 79 texture coords

g node_00B71FD5
usemtl material_02C6361F
s off
f 1/1/1 2/2/1 3/3/1 
f 1/1/2 4/4/2 2/2/2 
f 1/1/3 3/3/3 5/5/3 
f 1/1/4 6/6/4 4/4/4 
f 1/1/5 5/5/5 7/3/5 
f 1/1/6 8/4/6 6/6/6 
f 1/1/7 7/3/7 9/2/7 
f 1/1/8 9/2/8 8/4/8 
f 2/2/9 10/7/9 3/3/9 
f 2/2/10 4/4/10 11/8/10 
f 2/2/11 11/8/11 10/7/11 
f 5/5/12 12/9/12 7/3/12 
f 5/5/13 3/3/13 13/9/13 
f 5/5/14 14/10/14 12/9/14 
f 5/5/15 13/9/15 14/10/15 
f 9/2/16 15/8/16 8/4/16 
f 9/2/17 7/3/17 16/7/17 
f 9/2/18 16/7/18 15/8/18 
f 11/8/19 17/11/19 10/7/19 
f 11/8/20 18/12/20 17/11/20 
f 3/3/21 19/13/21 13/9/21 
f 3/3/22 10/7/22 19/13/22 
f 12/9/23 14/10/23 20/14/23 
f 12/9/24 21/13/24 7/3/24 
f 12/9/25 20/14/25 22/15/25 
f 12/9/26 22/15/26 21/13/26 
f 7/3/27 21/13/27 16/7/27 
f 15/8/28 16/7/28 23/11/28 
f 15/8/29 23/11/29 24/12/29 
f 18/12/30 25/16/30 17/11/30 
f 18/12/31 26/17/31 25/16/31 
f 13/9/32 19/13/32 27/15/32 
f 13/9/33 28/14/33 14/10/33 
f 13/9/34 27/15/34 28/14/34 
f 10/7/35 17/11/35 29/18/35 
f 10/7/36 29/18/36 19/13/36 
f 20/14/37 30/19/37 22/15/37 
f 20/14/38 14/10/38 31/20/38 
f 20/14/39 32/21/39 30/19/39 
f 20/14/40 31/20/40 32/21/40 
f 31/20/41 14/10/41 28/14/41 
f 31/20/42 28/14/42 32/21/42 
f 21/13/43 33/18/43 16/7/43 
f 21/13/44 22/15/44 34/22/44 
f 21/13/45 34/22/45 33/18/45 
f 16/7/46 33/18/46 23/11/46 
f 24/12/47 23/11/47 35/16/47 
f 24/12/48 35/16/48 36/17/48 
f 26/17/49 37/23/49 25/16/49 
f 26/17/50 38/24/50 37/23/50 
f 37/23/51 36/17/51 35/16/51 
f 37/23/52 38/24/52 36/17/52 
f 27/15/53 19/13/53 39/22/53 
f 27/15/54 40/19/54 28/14/54 
f 27/15/55 39/22/55 41/25/55 
f 27/15/56 41/25/56 40/19/56 
f 28/14/57 40/19/57 32/21/57 
f 19/13/58 29/18/58 39/22/58 
f 17/11/59 25/16/59 42/26/59 
f 17/11/60 42/26/60 29/18/60 
f 30/19/61 43/25/61 22/15/61 
f 30/19/62 32/21/62 44/27/62 
f 30/19/63 45/28/63 43/25/63 
f 30/19/64 44/27/64 45/28/64 
f 32/21/65 40/19/65 44/27/65 
f 22/15/66 43/25/66 34/22/66 
f 33/18/67 46/26/67 23/11/67 
f 33/18/68 34/22/68 47/29/68 
f 33/18/69 48/30/69 46/26/69 
f 33/18/70 47/29/70 48/30/70 
f 23/11/71 46/26/71 35/16/71 
f 41/25/72 39/22/72 49/31/72 
f 41/25/73 50/28/73 40/19/73 
f 41/25/74 49/31/74 51/32/74 
f 41/25/75 51/32/75 50/28/75 
f 40/19/76 50/28/76 44/27/76 
f 25/16/77 52/33/77 42/26/77 
f 29/18/78 53/29/78 39/22/78 
f 29/18/79 42/26/79 54/30/79 
f 29/18/80 54/30/80 53/29/80 
f 39/22/81 53/29/81 49/31/81 
f 45/28/82 55/32/82 43/25/82 
f 45/28/83 44/27/83 56/34/83 
f 45/28/84 56/34/84 55/32/84 
f 34/22/85 57/31/85 47/29/85 
f 34/22/86 43/25/86 57/31/86 
f 43/25/87 55/32/87 57/31/87 
f 48/30/88 58/35/88 46/26/88 
f 48/30/89 47/29/89 59/36/89 
f 48/30/90 59/36/90 58/35/90 
f 47/29/91 57/31/91 59/36/91 
f 35/16/92 46/26/92 60/33/92 
f 60/33/93 46/26/93 58/35/93 
f 51/32/94 61/34/94 50/28/94 
f 51/32/95 49/31/95 62/37/95 
f 50/28/96 61/34/96 44/27/96 
f 52/33/97 63/35/97 42/26/97 
f 42/26/98 63/35/98 54/30/98 
f 53/29/99 64/36/99 49/31/99 
f 53/29/100 54/30/100 64/36/100 
f 54/30/101 63/35/101 64/36/101 
f 49/31/102 64/36/102 62/37/102 
f 56/34/103 44/27/103 65/38/103 
f 65/38/104 44/27/104 61/34/104 
f 55/32/105 66/37/105 57/31/105 
f 57/31/106 66/37/106 59/36/106 
f 58/35/107 59/36/107 67/39/107 
f 63/35/108 68/39/108 64/36/108 
f 62/37/109 64/36/109 69/40/109 
f 69/40/110 64/36/110 68/39/110 
f 66/37/111 70/40/111 59/36/111 
f 59/36/112 70/40/112 67/39/112 
f 37/41/113 71/42/113 72/43/113 
f 37/41/114 73/43/114 71/42/114 
f 37/41/115 72/43/115 74/44/115 
f 37/41/116 75/44/116 73/43/116 
f 37/41/117 74/44/117 76/45/117 
f 37/41/118 77/45/118 75/44/118 
f 37/41/119 76/45/119 63/46/119 
f 37/41/120 58/46/120 77/45/120 
f 78/47/121 79/48/121 80/49/121 
f 78/47/122 81/50/122 79/48/122 
f 78/47/123 80/49/123 63/51/123 
f 78/47/124 82/52/124 81/50/124 
f 78/47/125 63/51/125 76/53/125 
f 78/47/126 74/54/126 82/52/126 
f 78/47/127 76/53/127 74/54/127 
f 79/48/128 83/55/128 80/49/128 
f 79/48/129 81/50/129 84/47/129 
f 79/48/130 85/49/130 83/55/130 
f 79/48/131 84/47/131 85/49/131 
f 63/51/132 80/49/132 68/56/132 
f 68/56/133 80/49/133 83/55/133 
f 82/52/134 74/54/134 72/57/134 
f 82/52/135 86/58/135 81/50/135 
f 82/52/136 72/57/136 86/58/136 
f 84/47/137 58/51/137 85/49/137 
f 84/47/138 81/50/138 87/52/138 
f 84/47/139 77/53/139 58/51/139 
f 84/47/140 87/52/140 75/54/140 
f 84/47/141 75/54/141 77/53/141 
f 81/50/142 86/58/142 87/52/142 
f 83/55/143 85/49/143 67/56/143 
f 67/56/144 85/49/144 58/51/144 
f 72/57/145 71/59/145 86/58/145 
f 75/54/146 87/52/146 73/57/146 
f 73/57/147 86/58/147 71/59/147 
f 73/57/148 87/52/148 86/58/148 
f 88/60/149 89/61/149 90/62/149 
f 88/60/150 91/63/150 89/61/150 
f 88/60/151 90/62/151 92/64/151 
f 88/60/152 93/65/152 91/63/152 
f 88/60/153 92/64/153 94/66/153 
f 88/60/154 94/66/154 93/65/154 
f 95/60/155 96/62/155 97/61/155 
f 95/60/156 98/64/156 96/62/156 
f 95/60/157 97/61/157 99/63/157 
f 95/60/158 100/66/158 98/64/158 
f 95/60/159 99/63/159 101/65/159 
f 95/60/160 101/65/160 100/66/160 
f 38/67/161 26/68/161 4/69/161 
f 38/67/162 4/69/162 6/70/162 
f 38/67/163 6/70/163 8/69/163 
f 38/67/164 8/69/164 36/68/164 
f 26/68/165 11/71/165 4/69/165 
f 26/68/166 18/72/166 11/71/166 
f 8/69/167 15/71/167 36/68/167 
f 15/71/168 24/72/168 36/68/168 
f 93/73/169 94/74/169 92/64/169 
f 93/73/170 92/64/170 90/62/170 
f 93/73/171 90/62/171 91/75/171 
f 101/73/172 98/64/172 100/74/172 
f 101/73/173 96/62/173 98/64/173 
f 101/73/174 99/75/174 96/62/174 
f 102/76/175 103/77/175 104/78/175 
f 102/76/176 105/79/176 103/77/176 
f 106/76/177 107/78/177 108/77/177 
f 106/76/178 108/77/178 109/79/178 
# 0 polygons - 178 triangles

#
# object node_02701E81
#

v  0.0000 0.7283 -9.8898
v  0.0000 -6.4134 -10.8661
v  -3.8622 -3.2717 -11.6378
v  3.8622 -3.2717 -11.6378
v  -6.0354 1.8268 -11.5787
v  6.0354 1.8268 -11.5787
v  -4.2402 6.7165 -9.8543
v  4.2402 6.7165 -9.8543
v  0.0000 9.0748 -7.7874
v  -7.1220 -7.0591 -9.6181
v  7.1220 -7.0591 -9.6181
v  0.0000 -10.0669 -8.4449
v  -9.7835 5.5748 -8.5276
v  -8.8504 -3.0000 -10.6063
v  -9.9764 1.3898 -9.6496
v  9.7835 5.5748 -8.5276
v  8.8504 -3.0000 -10.6063
v  9.9764 1.3898 -9.6496
v  -4.0236 11.3346 -5.5354
v  4.0236 11.3346 -5.5354
v  0.0000 10.8504 -4.0118
# 21 vertices

vn 0.2945 0.1294 -0.9469
vn -0.2945 0.1294 -0.9469
vn 0.2897 0.1344 -0.9476
vn -0.2897 0.1344 -0.9476
vn 0.2996 0.2176 -0.9289
vn -0.2996 0.2176 -0.9289
vn 0.3192 0.2315 -0.9190
vn -0.3192 0.2315 -0.9190
vn -0.1261 -0.3801 -0.9163
vn 0.1261 -0.3801 -0.9163
vn -0.0955 -0.5499 -0.8298
vn 0.0955 -0.5499 -0.8298
vn -0.2914 0.4115 -0.8635
vn -0.2059 -0.0765 -0.9756
vn -0.4479 0.2507 -0.8582
vn -0.4454 0.0801 -0.8917
vn -0.2086 -0.3143 -0.9261
vn 0.2914 0.4115 -0.8635
vn 0.2059 -0.0765 -0.9756
vn 0.4479 0.2507 -0.8582
vn 0.4454 0.0801 -0.8917
vn 0.2086 -0.3143 -0.9261
vn -0.0245 0.6835 -0.7296
vn 0.0245 0.6835 -0.7296
vn 0.2607 0.8736 -0.4109
vn -0.2607 0.8736 -0.4109
vn 0.3007 0.6589 -0.6895
vn -0.3007 0.6589 -0.6895
# 28 vertex normals

vt 0.0300 -0.5000 0.0000
vt 0.0300 -0.8300 0.0000
vt 0.4100 -0.6900 0.0000
vt 0.5900 -0.4500 0.0000
vt 0.4400 -0.2200 0.0000
vt 0.0300 -0.1100 0.0000
vt 0.6900 -0.8400 0.0000
vt 0.0300 -0.9800 0.0000
vt 0.9400 -0.2700 0.0000
vt 0.8400 -0.6700 0.0000
vt 0.9700 -0.4700 0.0000
vt 0.4100 -0.0200 0.0000
vt 0.0300 -0.0300 0.0000
# 13 texture coords

g node_02701E81
usemtl material_00F7E717
s off
f 110/80/179 111/81/179 112/82/179 
f 110/80/180 113/82/180 111/81/180 
f 110/80/181 112/82/181 114/83/181 
f 110/80/182 115/83/182 113/82/182 
f 110/80/183 114/83/183 116/84/183 
f 110/80/184 117/84/184 115/83/184 
f 110/80/185 116/84/185 118/85/185 
f 110/80/186 118/85/186 117/84/186 
f 111/81/187 119/86/187 112/82/187 
f 111/81/188 113/82/188 120/86/188 
f 111/81/189 121/87/189 119/86/189 
f 111/81/190 120/86/190 121/87/190 
f 114/83/191 122/88/191 116/84/191 
f 114/83/192 112/82/192 123/89/192 
f 114/83/193 124/90/193 122/88/193 
f 114/83/194 123/89/194 124/90/194 
f 123/89/195 112/82/195 119/86/195 
f 115/83/196 117/84/196 125/88/196 
f 115/83/197 126/89/197 113/82/197 
f 115/83/198 125/88/198 127/90/198 
f 115/83/199 127/90/199 126/89/199 
f 126/89/200 120/86/200 113/82/200 
f 118/85/201 116/84/201 128/91/201 
f 118/85/202 129/91/202 117/84/202 
f 118/85/203 128/91/203 130/92/203 
f 118/85/204 130/92/204 129/91/204 
f 129/91/205 125/88/205 117/84/205 
f 128/91/206 116/84/206 122/88/206 
# 0 polygons - 28 triangles

