# 3ds Max Wavefront OBJ Exporter v0.97b - (c)2007 guruware
# File Created: 28.10.2015 14:23:37

mtllib goronmask.mtl

#
# object node_03A11DC9
#

v  0.0000 -11.2126 2.1732
v  4.8071 -9.7913 4.7047
v  0.0000 -10.1220 5.4291
v  6.9843 -10.2362 0.3976
v  -4.8071 -9.7913 4.7047
v  6.9055 -9.9488 0.4016
v  -6.9843 -10.2362 0.3976
v  0.0000 -10.9488 2.1968
v  -6.9055 -9.9488 0.4016
v  0.0000 -6.5512 7.3189
v  9.0906 -8.9724 1.3819
v  6.1417 -6.2205 5.7953
v  11.7244 -6.8307 -4.1457
v  -11.7244 -6.8307 -4.1457
v  -9.0906 -8.9724 1.3819
v  -12.1063 -7.0512 -4.1102
v  10.5591 -4.9331 1.2047
v  12.1063 -7.0512 -4.1102
v  -6.1417 -6.2205 5.7953
v  0.0000 -1.2480 5.1260
v  -12.8307 -3.2480 -6.3268
v  13.2480 -3.1929 -6.2638
v  5.3622 -1.1732 4.0433
v  9.3465 -0.5236 -0.4252
v  12.8307 -3.2480 -6.3268
v  -10.5591 -4.9331 1.2047
v  -5.3622 -1.1732 4.0433
v  -13.2480 -3.1929 -6.2638
v  6.1142 4.2717 -0.2244
v  0.0000 5.3504 1.8268
v  -9.3465 -0.5236 -0.4252
v  -6.1142 4.2717 -0.2244
v  11.4370 0.8110 -7.3189
v  8.0079 5.4094 -7.1142
v  7.8031 5.1378 -7.1811
v  11.1850 0.6024 -7.3898
v  4.9646 8.7717 -5.9646
v  4.8071 8.4961 -6.0236
v  0.0000 10.8622 -4.8465
v  0.0000 11.2126 -4.7953
v  -4.9646 8.7717 -5.9646
v  -4.8071 8.4961 -6.0236
v  0.0000 9.7480 -2.6693
v  -8.0079 5.4094 -7.1142
v  -7.8031 5.1378 -7.1811
v  -11.4370 0.8110 -7.3189
v  -11.1850 0.6024 -7.3898
# 47 vertices

vn 0.1124 -0.9422 0.3156
vn 0.1837 -0.9640 0.1924
vn -0.1124 -0.9422 0.3156
vn -0.2392 -0.0522 -0.9696
vn -0.1837 -0.9640 0.1924
vn -0.2623 0.0861 -0.9611
vn 0.2392 -0.0522 -0.9696
vn 0.2623 0.0861 -0.9611
vn 0.1632 -0.4615 0.8720
vn 0.3903 -0.8746 0.2876
vn 0.2426 -0.3652 0.8988
vn 0.6032 -0.4305 0.6715
vn -0.1632 -0.4615 0.8720
vn -0.6209 -0.1596 -0.7675
vn 0.6209 -0.1596 -0.7675
vn -0.3903 -0.8746 0.2876
vn 0.2800 -0.6048 -0.7455
vn -0.5192 -0.8545 -0.0138
vn 0.7323 -0.2383 0.6379
vn 0.5192 -0.8545 -0.0138
vn 0.8762 -0.3021 0.3755
vn -0.2800 -0.6048 -0.7455
vn -0.2426 -0.3652 0.8988
vn 0.2043 0.3741 0.9046
vn -0.2043 0.3741 0.9046
vn -0.6032 -0.4305 0.6715
vn 0.1896 -0.4672 -0.8636
vn 0.9433 -0.1030 0.3156
vn 0.6282 0.3400 0.6998
vn 0.6485 0.4144 0.6385
vn 0.1809 0.3473 0.9201
vn -0.1896 -0.4672 -0.8636
vn 0.1943 -0.5213 -0.8310
vn -0.7323 -0.2383 0.6379
vn -0.1809 0.3473 0.9201
vn -0.6282 0.3400 0.6998
vn -0.8762 -0.3021 0.3755
vn -0.1943 -0.5213 -0.8310
vn -0.9433 -0.1030 0.3156
vn 0.6498 0.4113 0.6392
vn -0.1718 0.4406 0.8811
vn 0.1718 0.4406 0.8811
vn 0.3514 0.5470 0.7598
vn -0.6485 0.4144 0.6385
vn -0.3514 0.5470 0.7598
vn -0.6498 0.4113 0.6392
vn 0.7868 0.5161 0.3385
vn 0.7701 0.5607 0.3043
vn 0.8208 0.4604 0.3381
vn 0.1321 0.1422 -0.9810
vn 0.1699 -0.1786 -0.9692
vn 0.1469 0.1545 -0.9770
vn 0.3504 -0.1071 -0.9305
vn 0.7557 0.5803 0.3035
vn 0.8407 0.3754 0.3902
vn -0.0572 0.2793 -0.9585
vn -0.0833 0.2541 -0.9636
vn -0.1043 0.2650 -0.9586
vn -0.1599 0.1427 -0.9768
vn 0.1599 0.1427 -0.9768
vn 0.1043 0.2650 -0.9586
vn 0.4741 0.7251 0.4995
vn 0.4675 0.7387 0.4855
vn -0.4741 0.7251 0.4995
vn 0.0833 0.2541 -0.9636
vn 0.0572 0.2793 -0.9585
vn 0.3393 0.6725 0.6578
vn -0.7557 0.5803 0.3035
vn -0.4675 0.7387 0.4855
vn -0.3393 0.6725 0.6578
vn -0.1321 0.1422 -0.9810
vn -0.1469 0.1545 -0.9770
vn -0.7701 0.5607 0.3043
vn -0.3504 -0.1071 -0.9305
vn -0.7868 0.5161 0.3385
vn -0.1699 -0.1786 -0.9692
vn -0.8208 0.4604 0.3381
vn -0.8407 0.3754 0.3902
# 78 vertex normals

vt 0.0200 0.0200 0.0000
vt 0.2800 0.0600 0.0000
vt 0.0200 0.0600 0.0000
vt 0.5900 0.0200 0.0000
vt 0.0200 0.3000 0.0000
vt 0.5800 0.0600 0.0000
vt 0.3600 0.3000 0.0000
vt 0.7800 0.2000 0.0000
vt 0.7000 0.3800 0.0000
vt 0.0200 0.5900 0.0000
vt 0.7800 0.3600 0.0000
vt 0.3300 0.5900 0.0000
vt 0.7000 0.6700 0.0000
vt 0.4400 0.9800 0.0000
vt 0.0200 0.9800 0.0000
vt 0.9800 0.3900 0.0000
vt 0.6200 0.3600 0.0000
vt 0.9500 0.1600 0.0000
vt 0.6200 0.9400 0.0000
vt 0.9800 0.9800 0.0000
vt 0.9800 0.9200 0.0000
vt 0.5600 0.5900 0.0000
vt 0.9800 0.5900 0.0000
# 23 texture coords

g node_03A11DC9
usemtl material_026A490F
s off
f 1/1/1 2/2/1 3/3/1 
f 1/1/2 4/4/2 2/2/2 
f 1/1/3 3/3/3 5/2/3 
f 1/1/4 6/4/4 4/4/4 
f 1/1/5 5/2/5 7/4/5 
f 1/1/6 8/1/6 6/4/6 
f 1/1/7 7/4/7 9/4/7 
f 1/1/8 9/4/8 8/1/8 
f 2/2/9 10/5/9 3/3/9 
f 2/2/10 4/4/10 11/6/10 
f 2/2/11 12/7/11 10/5/11 
f 2/2/12 11/6/12 12/7/12 
f 3/3/13 10/5/13 5/2/13 
f 6/4/14 13/8/14 4/4/14 
f 7/4/15 14/8/15 9/4/15 
f 7/4/16 5/2/16 15/6/16 
f 7/4/17 16/8/17 14/8/17 
f 7/4/18 15/6/18 16/8/18 
f 11/6/19 17/9/19 12/7/19 
f 11/6/20 4/4/20 18/8/20 
f 11/6/21 18/8/21 17/9/21 
f 4/4/22 13/8/22 18/8/22 
f 10/5/23 19/7/23 5/2/23 
f 10/5/24 12/7/24 20/10/24 
f 10/5/25 20/10/25 19/7/25 
f 5/2/26 19/7/26 15/6/26 
f 14/8/27 16/8/27 21/11/27 
f 17/9/28 18/8/28 22/11/28 
f 17/9/29 23/12/29 12/7/29 
f 17/9/30 24/13/30 23/12/30 
f 12/7/31 23/12/31 20/10/31 
f 13/8/32 25/11/32 18/8/32 
f 18/8/33 25/11/33 22/11/33 
f 19/7/34 26/9/34 15/6/34 
f 19/7/35 20/10/35 27/12/35 
f 19/7/36 27/12/36 26/9/36 
f 15/6/37 26/9/37 16/8/37 
f 21/11/38 16/8/38 28/11/38 
f 28/11/39 16/8/39 26/9/39 
f 24/13/40 29/14/40 23/12/40 
f 20/10/41 30/15/41 27/12/41 
f 20/10/42 23/12/42 30/15/42 
f 23/12/43 29/14/43 30/15/43 
f 26/9/44 27/12/44 31/13/44 
f 30/15/45 32/14/45 27/12/45 
f 27/12/46 32/14/46 31/13/46 
f 33/16/47 29/17/47 24/17/47 
f 33/16/48 34/16/48 29/17/48 
f 33/16/49 24/17/49 22/18/49 
f 33/16/50 35/16/50 34/16/50 
f 33/16/51 22/18/51 25/18/51 
f 33/16/52 36/16/52 35/16/52 
f 33/16/53 25/18/53 36/16/53 
f 29/17/54 34/16/54 37/19/54 
f 24/17/55 17/17/55 22/18/55 
f 35/16/56 38/19/56 34/16/56 
f 34/16/57 38/19/57 37/19/57 
f 38/19/58 39/20/58 37/19/58 
f 39/20/59 40/20/59 37/19/59 
f 39/20/60 41/19/60 40/20/60 
f 39/20/61 42/19/61 41/19/61 
f 37/19/62 40/20/62 43/21/62 
f 37/19/63 43/21/63 29/22/63 
f 40/20/64 41/19/64 43/21/64 
f 42/19/65 44/16/65 41/19/65 
f 42/19/66 45/16/66 44/16/66 
f 29/22/67 43/21/67 30/23/67 
f 41/19/68 44/16/68 32/17/68 
f 41/19/69 32/22/69 43/21/69 
f 43/21/70 32/22/70 30/23/70 
f 45/16/71 46/16/71 44/16/71 
f 45/16/72 47/16/72 46/16/72 
f 44/16/73 46/16/73 32/17/73 
f 47/16/74 21/18/74 46/16/74 
f 32/17/75 46/16/75 31/17/75 
f 21/18/76 28/18/76 46/16/76 
f 46/16/77 28/18/77 31/17/77 
f 28/18/78 26/17/78 31/17/78 
# 0 polygons - 78 triangles

#
# object node_00AA0C13
#

v  8.3937 -6.8110 2.0591
v  0.0000 -9.8031 4.0591
v  0.0000 -2.3858 3.9016
v  6.9055 -9.9488 0.4016
v  5.9213 3.0591 -2.1772
v  11.7244 -6.8307 -4.1457
v  9.0039 1.8937 -5.1654
v  12.8307 -3.2480 -6.3268
v  -8.3937 -6.8110 2.0591
v  0.0000 -10.9488 2.1968
v  -6.9055 -9.9488 0.4016
v  7.8031 5.1378 -7.1811
v  0.0000 4.2362 -0.1969
v  4.8071 8.4961 -6.0236
v  11.1850 0.6024 -7.3898
v  -11.7244 -6.8307 -4.1457
v  -5.9213 3.0591 -2.1772
v  -12.8307 -3.2480 -6.3268
v  -9.0039 1.8937 -5.1654
v  0.0000 10.8622 -4.8465
v  -11.1850 0.6024 -7.3898
v  -4.8071 8.4961 -6.0236
v  -7.8031 5.1378 -7.1811
# 23 vertices

vn -0.2248 -0.0207 -0.9742
vn -0.3765 0.5660 -0.7334
vn -0.4093 -0.4445 -0.7968
vn -0.7319 0.5556 -0.3946
vn -0.7084 -0.4207 -0.5667
vn -0.8810 -0.0158 -0.4729
vn -0.7217 -0.4114 -0.5567
vn 0.2248 -0.0207 -0.9742
vn -0.2512 0.8244 -0.5072
vn 0.3765 0.5660 -0.7334
vn 0.2512 0.8244 -0.5072
vn -0.6784 -0.5522 -0.4845
vn -0.3625 -0.4905 -0.7925
vn -0.7310 -0.4876 -0.4775
vn -0.3593 -0.5869 -0.7255
vn -0.7537 -0.4535 -0.4758
vn -0.7383 -0.5314 -0.4154
vn 0.7319 0.5556 -0.3946
vn 0.4093 -0.4445 -0.7968
vn 0.8810 -0.0158 -0.4729
vn 0.7084 -0.4207 -0.5667
vn 0.7217 -0.4114 -0.5567
vn 0.3625 -0.4905 -0.7925
vn -0.4351 -0.5172 -0.7370
vn 0.7537 -0.4535 -0.4758
vn 0.3593 -0.5869 -0.7255
vn 0.6784 -0.5522 -0.4845
vn 0.7310 -0.4876 -0.4775
vn 0.4351 -0.5172 -0.7370
vn 0.7383 -0.5314 -0.4154
# 30 vertex normals

vt 0.5000 0.2500 0.0000
vt 0.9400 0.1600 0.0000
vt 0.9400 0.4100 0.0000
vt 0.5600 0.1300 0.0000
vt 0.5600 0.6600 0.0000
vt 0.1300 0.3400 0.0000
vt 0.3100 0.6600 0.0000
vt 0.0600 0.5000 0.0000
vt 0.9400 0.0300 0.0000
vt 0.3800 0.8400 0.0000
vt 0.9400 0.6600 0.0000
vt 0.6300 0.9100 0.0000
vt 0.1300 0.6600 0.0000
vt 0.9400 0.9700 0.0000
# 14 texture coords

g node_00AA0C13
usemtl material_01BC9188
s off
f 48/24/79 49/25/79 50/26/79 
f 48/24/80 51/27/80 49/25/80 
f 48/24/81 50/26/81 52/28/81 
f 48/24/82 53/29/82 51/27/82 
f 48/24/83 52/28/83 54/30/83 
f 48/24/84 55/31/84 53/29/84 
f 48/24/85 54/30/85 55/31/85 
f 49/25/86 56/24/86 50/26/86 
f 49/25/87 51/27/87 57/32/87 
f 49/25/88 58/27/88 56/24/88 
f 49/25/89 57/32/89 58/27/89 
f 52/28/90 59/33/90 54/30/90 
f 52/28/91 50/26/91 60/34/91 
f 52/28/92 61/35/92 59/33/92 
f 52/28/93 60/34/93 61/35/93 
f 55/31/94 54/30/94 62/36/94 
f 62/36/95 54/30/95 59/33/95 
f 56/24/96 58/27/96 63/29/96 
f 56/24/97 64/28/97 50/26/97 
f 56/24/98 63/29/98 65/31/98 
f 56/24/99 66/30/99 64/28/99 
f 56/24/100 65/31/100 66/30/100 
f 50/26/101 64/28/101 60/34/101 
f 61/35/102 60/34/102 67/37/102 
f 65/31/103 68/36/103 66/30/103 
f 64/28/104 69/35/104 60/34/104 
f 64/28/105 66/30/105 70/33/105 
f 64/28/106 70/33/106 69/35/106 
f 69/35/107 67/37/107 60/34/107 
f 70/33/108 66/30/108 68/36/108 
# 0 polygons - 30 triangles

